<mxfile host="Electron" modified="2024-06-04T19:26:32.806Z" agent="Mozilla/5.0 (X11; Linux x86_64) AppleWebKit/537.36 (KHTML, like Gecko) draw.io/24.4.8 Chrome/124.0.6367.207 Electron/30.0.6 Safari/537.36" etag="jNq9HlTiZjciecSAcY_u" version="24.4.8" type="device">
  <diagram name="Page-1" id="c5X7hhBgmhvkAeY6OyJd">
    <mxGraphModel dx="912" dy="559" grid="1" gridSize="10" guides="1" tooltips="1" connect="1" arrows="1" fold="1" page="1" pageScale="1" pageWidth="850" pageHeight="1100" math="0" shadow="0">
      <root>
        <mxCell id="0" />
        <mxCell id="1" parent="0" />
        <mxCell id="uJ7OIQPrnL1CbaQ1osgT-1" value="" style="rounded=0;whiteSpace=wrap;html=1;" vertex="1" parent="1">
          <mxGeometry x="240" y="200" width="310" height="200" as="geometry" />
        </mxCell>
        <mxCell id="uJ7OIQPrnL1CbaQ1osgT-7" value="" style="rounded=0;whiteSpace=wrap;html=1;strokeColor=#00fa11;" vertex="1" parent="1">
          <mxGeometry x="440" y="270" width="40" height="80" as="geometry" />
        </mxCell>
        <mxCell id="uJ7OIQPrnL1CbaQ1osgT-8" value="" style="shape=umlActor;verticalLabelPosition=bottom;verticalAlign=top;html=1;outlineConnect=0;" vertex="1" parent="1">
          <mxGeometry x="445" y="280" width="30" height="60" as="geometry" />
        </mxCell>
        <mxCell id="uJ7OIQPrnL1CbaQ1osgT-27" value="" style="endArrow=none;html=1;rounded=0;fillColor=#f8cecc;strokeColor=#b85450;" edge="1" parent="1">
          <mxGeometry width="50" height="50" relative="1" as="geometry">
            <mxPoint x="459.77" y="400" as="sourcePoint" />
            <mxPoint x="459.77" y="200" as="targetPoint" />
          </mxGeometry>
        </mxCell>
        <mxCell id="uJ7OIQPrnL1CbaQ1osgT-33" value="center_x" style="text;html=1;align=center;verticalAlign=middle;whiteSpace=wrap;rounded=0;" vertex="1" parent="1">
          <mxGeometry x="430" y="400" width="60" height="30" as="geometry" />
        </mxCell>
        <mxCell id="uJ7OIQPrnL1CbaQ1osgT-38" value="" style="endArrow=classic;startArrow=classic;html=1;rounded=0;" edge="1" parent="1">
          <mxGeometry width="50" height="50" relative="1" as="geometry">
            <mxPoint x="395" y="250" as="sourcePoint" />
            <mxPoint x="460" y="250" as="targetPoint" />
          </mxGeometry>
        </mxCell>
        <mxCell id="uJ7OIQPrnL1CbaQ1osgT-39" value="" style="endArrow=none;html=1;rounded=0;entryX=0.5;entryY=0;entryDx=0;entryDy=0;exitX=0.5;exitY=1;exitDx=0;exitDy=0;fillColor=#ffe6cc;strokeColor=#d79b00;" edge="1" parent="1" source="uJ7OIQPrnL1CbaQ1osgT-1" target="uJ7OIQPrnL1CbaQ1osgT-1">
          <mxGeometry width="50" height="50" relative="1" as="geometry">
            <mxPoint x="350" y="360" as="sourcePoint" />
            <mxPoint x="400" y="310" as="targetPoint" />
          </mxGeometry>
        </mxCell>
        <mxCell id="uJ7OIQPrnL1CbaQ1osgT-40" value="frame / 2" style="text;html=1;align=center;verticalAlign=middle;whiteSpace=wrap;rounded=0;" vertex="1" parent="1">
          <mxGeometry x="365" y="400" width="60" height="30" as="geometry" />
        </mxCell>
        <mxCell id="uJ7OIQPrnL1CbaQ1osgT-41" value="Diff." style="text;html=1;align=center;verticalAlign=middle;whiteSpace=wrap;rounded=0;" vertex="1" parent="1">
          <mxGeometry x="395" y="230" width="60" height="30" as="geometry" />
        </mxCell>
        <mxCell id="uJ7OIQPrnL1CbaQ1osgT-42" value="" style="endArrow=classic;startArrow=classic;html=1;rounded=0;" edge="1" parent="1">
          <mxGeometry width="50" height="50" relative="1" as="geometry">
            <mxPoint x="240" y="190" as="sourcePoint" />
            <mxPoint x="550" y="190" as="targetPoint" />
          </mxGeometry>
        </mxCell>
        <mxCell id="uJ7OIQPrnL1CbaQ1osgT-43" value="frame" style="text;html=1;align=center;verticalAlign=middle;whiteSpace=wrap;rounded=0;" vertex="1" parent="1">
          <mxGeometry x="365" y="160" width="60" height="30" as="geometry" />
        </mxCell>
        <mxCell id="uJ7OIQPrnL1CbaQ1osgT-44" value="center_x = (x1 + x2) / 2&lt;div&gt;Diff. = center_x - frame / 2&lt;/div&gt;&lt;div&gt;pos-relative = Diff / frame&lt;/div&gt;&lt;div&gt;pos-relative * fov = angle&lt;/div&gt;" style="text;html=1;align=center;verticalAlign=middle;whiteSpace=wrap;rounded=0;" vertex="1" parent="1">
          <mxGeometry x="560" y="295" width="160" height="30" as="geometry" />
        </mxCell>
        <mxCell id="uJ7OIQPrnL1CbaQ1osgT-45" value="" style="endArrow=none;html=1;rounded=0;exitX=0.5;exitY=0;exitDx=0;exitDy=0;entryX=0.966;entryY=-0.008;entryDx=0;entryDy=0;entryPerimeter=0;fillColor=#dae8fc;strokeColor=#6c8ebf;" edge="1" parent="1" source="uJ7OIQPrnL1CbaQ1osgT-40" target="uJ7OIQPrnL1CbaQ1osgT-1">
          <mxGeometry width="50" height="50" relative="1" as="geometry">
            <mxPoint x="280" y="500" as="sourcePoint" />
            <mxPoint x="570" y="190" as="targetPoint" />
          </mxGeometry>
        </mxCell>
        <mxCell id="uJ7OIQPrnL1CbaQ1osgT-46" value="" style="curved=1;endArrow=none;html=1;rounded=0;endFill=0;fillColor=#dae8fc;strokeColor=#6c8ebf;" edge="1" parent="1">
          <mxGeometry width="50" height="50" relative="1" as="geometry">
            <mxPoint x="395" y="350" as="sourcePoint" />
            <mxPoint x="410" y="380" as="targetPoint" />
            <Array as="points">
              <mxPoint x="410" y="350" />
            </Array>
          </mxGeometry>
        </mxCell>
        <mxCell id="uJ7OIQPrnL1CbaQ1osgT-49" value="&lt;font style=&quot;font-size: 9px;&quot;&gt;angle&lt;/font&gt;" style="text;html=1;align=center;verticalAlign=middle;whiteSpace=wrap;rounded=0;" vertex="1" parent="1">
          <mxGeometry x="395" y="330" width="40" height="20" as="geometry" />
        </mxCell>
      </root>
    </mxGraphModel>
  </diagram>
</mxfile>
